<?xml version="1.0" standalone="no"?>
<!DOCTYPE svg PUBLIC "-//W3C//DTD SVG 20010904//EN"
 "http://www.w3.org/TR/2001/REC-SVG-20010904/DTD/svg10.dtd">
<svg version="1.0" xmlns="http://www.w3.org/2000/svg"
 width="800.000000pt" height="800.000000pt" viewBox="0 0 800.000000 800.000000"
 preserveAspectRatio="xMidYMid meet">
<metadata>
Created by potrace 1.11, written by Peter Selinger 2001-2013
</metadata>
<g transform="translate(0.000000,800.000000) scale(0.100000,-0.100000)"
fill="#000000" stroke="none">
<path d="M4274 6748 c-68 -23 -102 -44 -165 -105 -45 -43 -47 -44 -85 -34 -39
11 -64 2 -64 -24 0 -7 -7 -18 -15 -25 -23 -19 -18 -49 10 -62 30 -14 31 -24 5
-63 -11 -16 -20 -40 -20 -53 0 -25 31 -90 63 -133 28 -38 24 -72 -12 -116 -17
-20 -31 -43 -31 -50 0 -7 22 -37 49 -67 46 -51 70 -104 56 -125 -3 -6 1 -24
10 -41 l16 -31 30 22 c34 24 95 28 128 7 26 -16 25 -19 -51 -127 l-63 -89
-155 -60 c-85 -34 -167 -63 -181 -66 -16 -2 -49 6 -80 21 -81 37 -140 44 -190
22 -45 -21 -59 -17 -99 26 -54 58 -130 74 -178 38 -35 -26 -102 -114 -102
-134 0 -9 9 -28 20 -42 16 -20 18 -27 7 -34 -7 -4 -25 -24 -39 -43 -26 -34
-88 -79 -88 -64 0 4 10 18 22 31 21 22 21 23 2 44 -29 32 -50 40 -78 29 -42
-16 -30 5 29 49 33 25 55 49 55 61 0 53 -31 65 -81 29 -43 -30 -59 -30 -104 5
-52 40 -57 48 -41 66 7 8 23 32 36 53 l22 38 -38 -7 c-35 -6 -38 -5 -26 9 7 9
12 28 10 44 -3 24 -7 28 -33 26 -84 -4 -111 -9 -126 -25 -21 -23 -29 -23 -29
2 0 20 -14 25 -70 21 -63 -3 -102 39 -114 124 -4 23 -8 50 -10 60 -2 11 -9 53
-16 93 -7 39 -17 72 -22 72 -4 0 -8 -4 -8 -9 0 -24 -77 -141 -92 -141 -17 0
-21 11 -49 125 -7 28 -13 52 -15 54 -1 1 -12 -5 -22 -15 -27 -25 -44 -93 -47
-187 -4 -93 -14 -108 -94 -137 -31 -11 -74 -27 -97 -35 -22 -9 -49 -23 -60
-33 -67 -62 -90 -71 -299 -122 -220 -53 -264 -72 -287 -119 -21 -44 -12 -133
18 -176 17 -23 18 -57 3 -72 -6 -6 -9 -23 -7 -39 3 -25 14 -35 79 -69 98 -51
103 -56 124 -113 35 -93 54 -128 96 -176 80 -90 178 -140 389 -195 85 -22 113
-26 148 -18 24 5 45 7 46 5 1 -2 26 -57 56 -123 29 -66 74 -163 100 -215 94
-189 111 -285 76 -445 -28 -132 -13 -263 46 -383 37 -77 34 -88 -74 -302 -89
-177 -99 -203 -101 -257 -2 -36 -9 -70 -20 -86 -26 -40 -181 -220 -235 -274
-26 -26 -79 -88 -117 -138 -96 -127 -258 -276 -335 -309 -32 -13 -96 -6 -110
13 -3 3 -32 24 -65 46 -53 35 -253 176 -280 197 -5 4 -50 39 -100 77 -137 104
-207 177 -353 370 -40 52 -105 130 -144 174 -40 44 -77 86 -81 93 -13 22 -27
16 -41 -18 -25 -58 -23 -62 156 -356 72 -117 129 -214 127 -216 -2 -2 -34 16
-71 41 -144 95 -278 245 -375 420 -26 45 -52 84 -59 87 -8 3 -29 0 -48 -7
l-35 -12 19 -52 c44 -124 175 -338 294 -481 284 -338 869 -711 1385 -882 161
-54 598 -177 689 -195 11 -2 57 -15 102 -30 72 -22 195 -44 240 -43 27 1 225
-14 230 -17 3 -2 33 -6 65 -10 33 -3 71 -8 85 -10 14 -3 52 -7 85 -10 33 -3
76 -8 95 -10 54 -7 120 -14 180 -19 30 -3 78 -8 105 -11 133 -14 188 -17 285
-18 107 -1 147 2 385 32 44 6 100 13 125 15 58 6 168 18 200 21 14 2 41 6 60
9 19 3 53 8 74 11 58 8 350 73 431 95 39 10 81 21 95 24 65 13 345 91 425 118
259 89 452 180 710 335 198 120 403 258 435 293 3 3 30 25 60 48 30 24 107 93
171 155 63 62 145 139 180 172 71 65 68 61 260 310 130 169 167 226 164 255
-1 8 -3 22 -3 32 -3 29 -40 9 -90 -49 -26 -31 -51 -60 -57 -67 -243 -278 -361
-397 -500 -508 -102 -80 -184 -134 -299 -193 -55 -29 -144 -75 -197 -104 -53
-28 -107 -51 -121 -51 -40 0 -59 32 -98 162 l-36 122 25 22 c26 22 26 22 7 43
-19 21 -19 22 -1 35 24 17 15 30 -34 46 -23 7 -41 15 -41 17 0 2 7 15 16 28
15 23 15 24 -10 31 -19 4 -26 13 -26 30 0 21 -20 50 -88 124 -36 40 -73 126
-104 244 -16 61 -39 128 -51 149 -31 56 -94 90 -162 88 -72 -1 -97 21 -125
114 -49 161 -51 184 -39 568 0 16 2 16 29 -3 19 -14 39 -19 57 -16 15 2 31 5
36 5 4 1 7 8 7 16 0 11 5 12 26 5 34 -13 34 -13 34 10 0 25 14 25 50 0 99 -70
256 -92 417 -59 29 6 55 10 58 10 2 0 23 6 45 14 43 15 42 15 65 15 22 0 18
18 -5 25 -34 11 -22 22 25 23 98 2 229 60 308 135 46 45 123 161 133 203 3 13
3 35 0 49 -6 25 -7 25 -41 11 -19 -8 -35 -11 -35 -6 0 5 12 46 26 90 14 45 23
84 21 86 -2 3 -41 -22 -86 -56 -78 -58 -118 -78 -91 -45 34 41 -9 18 -117 -62
-133 -100 -202 -134 -285 -141 -48 -4 -58 -2 -58 11 0 26 -16 28 -65 7 l-46
-20 21 30 21 29 -26 7 c-14 3 -49 3 -78 -1 -81 -11 -231 -15 -245 -6 -8 4 8
14 43 25 90 28 83 35 -59 51 -86 10 -130 40 -176 120 -56 98 -242 245 -356
281 -79 25 -216 25 -321 -1 -13 -3 -32 -7 -44 -10 -66 -14 -292 -90 -334 -112
-27 -14 -69 -44 -92 -66 -24 -23 -45 -38 -49 -35 -3 3 6 54 20 113 37 154 37
156 -36 195 -62 33 -49 43 48 36 118 -8 153 -7 176 5 10 5 46 8 79 6 78 -6
122 8 165 52 93 96 90 209 -8 334 -75 95 -314 385 -349 424 -30 32 -39 51 -39
77 0 19 5 38 10 41 17 11 2 22 -37 30 -21 4 -40 7 -43 7 -3 0 -13 4 -22 9 -34
18 -20 50 53 121 123 121 141 194 92 368 -14 47 -29 102 -35 123 -14 50 -63
90 -175 145 -109 52 -140 57 -219 30z m-824 -1411 c0 -54 43 -80 150 -91 30
-4 89 -11 130 -17 l75 -12 109 42 c60 22 111 41 113 41 6 0 -45 -107 -70 -147
l-26 -41 23 -15 c30 -20 56 -46 56 -57 0 -15 -169 -230 -181 -230 -4 0 -26 37
-49 83 -23 45 -53 92 -66 105 -45 40 -123 23 -146 -32 -14 -34 -14 -36 -23
-111 -11 -94 -33 -154 -59 -161 -57 -14 -82 11 -61 62 l13 31 -52 13 c-28 8
-57 13 -63 12 -24 -5 -12 13 27 42 45 33 51 49 18 41 -110 -25 -109 -25 -102
-2 3 12 12 28 18 36 9 12 3 13 -37 7 -48 -7 -49 -7 -41 16 13 38 12 81 -2 116
-13 31 -12 34 46 110 59 78 114 135 160 165 34 22 40 21 40 -6z m-206 -9 c-4
-7 -35 -47 -68 -88 -33 -41 -61 -77 -63 -79 -2 -2 -5 -2 -8 1 -5 5 110 157
129 170 16 11 18 10 10 -4z m1517 -55 c40 -24 32 -36 -24 -38 -63 -2 -79 9
-47 35 31 24 35 24 71 3z m-2972 -109 c47 -8 115 -24 151 -34 36 -10 83 -18
105 -17 30 2 46 -3 63 -20 26 -26 77 -131 87 -179 6 -30 4 -32 -27 -37 -36 -5
-141 -2 -173 6 -11 3 -33 8 -50 13 -53 13 -145 64 -190 105 -48 45 -85 110
-85 152 0 32 3 33 119 11z m5101 -938 c0 -7 -15 -19 -32 -27 -18 -7 -61 -25
-96 -41 -69 -31 -72 -32 -72 -19 0 9 176 101 192 101 4 0 8 -6 8 -14z m-1850
-783 c34 -24 38 -28 142 -202 51 -85 108 -170 128 -189 43 -42 108 -75 178
-92 54 -13 205 -15 302 -6 88 10 105 2 146 -65 140 -231 245 -533 230 -659 -6
-51 -89 -278 -109 -296 -19 -19 -360 -130 -432 -141 -16 -2 -59 -11 -95 -19
-36 -9 -72 -17 -80 -19 -8 -2 -44 -11 -80 -20 -36 -9 -72 -19 -80 -21 -31 -7
-206 -43 -235 -48 -241 -41 -252 -43 -355 -52 -36 -3 -76 -7 -90 -10 -44 -7
-242 -18 -345 -18 -104 0 -196 7 -350 25 -128 15 -193 21 -365 34 -68 5 -138
11 -230 21 -30 3 -80 7 -110 9 -30 2 -80 6 -110 9 -30 3 -85 8 -121 11 -79 5
-175 15 -203 21 -12 2 -48 9 -81 15 -91 16 -547 130 -585 146 -8 3 -18 5 -22
5 -17 -4 -5 15 53 80 33 37 57 68 52 68 -13 0 -43 66 -43 95 0 15 10 31 25 41
25 16 25 17 5 34 -25 22 -25 23 6 57 40 43 135 154 169 198 55 71 145 178 219
259 41 45 107 124 146 176 40 52 103 131 139 175 37 44 85 103 106 130 104
134 196 185 332 186 32 0 69 -3 83 -6 14 -3 43 -7 65 -10 22 -3 51 -7 65 -10
14 -2 45 -7 70 -10 102 -13 170 -28 185 -39 15 -10 9 -16 -42 -46 -32 -19 -81
-46 -108 -60 -100 -50 -156 -133 -107 -159 18 -10 164 -8 267 4 41 4 72 2 100
-8 65 -23 175 -2 201 38 9 13 17 46 19 72 2 26 4 51 4 56 1 4 67 7 149 6 222
-2 326 29 532 154 163 100 211 114 260 80z"/>
</g>
</svg>
